<svg xmlns="http://www.w3.org/2000/svg" viewBox="0 0 24 24"><title>MindsDB</title><path fill="#00B06D" d="M12 2C6.48 2 2 6.48 2 12s4.48 10 10 10 10-4.48 10-10S17.52 2 12 2zm-.5 3c.83 0 1.5.67 1.5 1.5v3.09c.72.41 1.21 1.13 1.38 1.96l2.15-1.24a1.5 1.5 0 1 1 .75 1.3L15.13 12.85a2.51 2.51 0 0 1-1.38 1.96v3.19H11.5c-.26 0-.5-.21-.5-.5v-2.69a2.51 2.51 0 0 1-1.38-1.96L7.47 14.1a1.5 1.5 0 1 1 .75-1.3l2.16-1.25c.17-.83.66-1.55 1.38-1.96V6.5c0-.83.41-1.5.74-1.5zM12 10.5a1.5 1.5 0 1 0 0 3 1.5 1.5 0 0 0 0-3z"/></svg>
