<svg role="img" viewBox="0 0 24 24" xmlns="http://www.w3.org/2000/svg"><title>Apache Hadoop</title><path fill="#66CCFF" d="M11.403 0v.003A6.921 6.921 0 0 0 6.86 1.64l-.002.001a9.459 9.459 0 0 0-2.834 4.298l-.004.01-.009.003A5.862 5.862 0 0 0 .055 9.616a4.62 4.62 0 0 0 .47 4.155 6.2 6.2 0 0 0 3.54 2.583l.01.004.006.008A7.737 7.737 0 0 0 6.44 21.16a7.382 7.382 0 0 0 4.706 2.837l.003.001a6.82 6.82 0 0 0 1.447.002l.003-.001a7.382 7.382 0 0 0 4.707-2.837 7.737 7.737 0 0 0 2.359-4.793l.005-.01.012-.003a6.2 6.2 0 0 0 3.538-2.583 4.62 4.62 0 0 0 .47-4.155 5.862 5.862 0 0 0-3.956-3.665l-.008-.003-.004-.01A9.459 9.459 0 0 0 16.887 1.64l-.001-.001v-.001A6.923 6.923 0 0 0 12.34.001L12.337 0h-.002Zm.462.957-.003.002a5.944 5.944 0 0 1 3.73 1.67A8.36 8.36 0 0 1 17.49 4.43v.004a14.99 14.99 0 0 1 .73 2.88l.002.01-.01.002a6.877 6.877 0 0 0-4.055 1.753 7.65 7.65 0 0 0-2.21 3.88h-.006l-.004-.014c-.416-1.51-1.13-2.862-2.14-3.83a6.877 6.877 0 0 0-4.052-1.789l-.01-.003.001-.008c.148-.903.387-1.844.73-2.882v-.004A8.361 8.361 0 0 1 8.37 2.63a5.944 5.944 0 0 1 3.495-1.672Zm-5.48 6.868c.12.003.242.014.363.032a5.934 5.934 0 0 1 3.388 1.574 6.707 6.707 0 0 1 1.896 3.414l.001.005-.003.008a14.91 14.91 0 0 1-1.426 2.63l-.005.007-.008-.005a6.903 6.903 0 0 0-4.18-1.28 7.637 7.637 0 0 0-4.21 1.597l-.012.008-.007-.012c-.48-.738-.912-1.543-1.148-2.666v-.004a3.66 3.66 0 0 1 .404-3.228c.798-1.22 2.127-1.981 3.55-2.052a5.25 5.25 0 0 1 1.397-.028Zm11.289 0c.12.003.242.014.363.032a5.25 5.25 0 0 1 1.034-.004c1.423.071 2.752.832 3.55 2.052a3.66 3.66 0 0 1 .404 3.228v.004c-.236 1.123-.668 1.928-1.148 2.666l-.007.012-.012-.008a7.637 7.637 0 0 0-4.21-1.598 6.903 6.903 0 0 0-4.18 1.281l-.008.005-.005-.007a14.916 14.916 0 0 1-1.425-2.63l-.004-.008.002-.005a6.707 6.707 0 0 1 1.896-3.414 5.934 5.934 0 0 1 3.387-1.574c.12-.018.242-.029.363-.032Zm-5.71 6.412h.005l.007.012a8.362 8.362 0 0 1 .81 2.364 9.42 9.42 0 0 1-.213 4.458l-.002.008-.006.003a5.945 5.945 0 0 1-3.413 1.964 6.707 6.707 0 0 1-3.69-.489l-.005-.002.002-.008a14.846 14.846 0 0 1 .695-2.88l.003-.008.009-.002a6.895 6.895 0 0 0 2.866-3.194 7.655 7.655 0 0 0 .853-4.42l-.002-.014.005.005a7.72 7.72 0 0 0 2.074 2.203Zm1.145 0a7.72 7.72 0 0 0 2.075-2.203l.005-.005-.002.014a7.655 7.655 0 0 0 .853 4.42 6.895 6.895 0 0 0 2.866 3.194l.01.002.002.009a14.848 14.848 0 0 1 .695 2.879l.002.008-.005.002a6.707 6.707 0 0 1-3.69.49 5.945 5.945 0 0 1-3.413-1.965l-.006-.003-.002-.008a9.42 9.42 0 0 1-.213-4.458 8.362 8.362 0 0 1 .81-2.364l.008-.012Z"/></svg>
