<svg role="img" viewBox="0 0 24 24" xmlns="http://www.w3.org/2000/svg"><title>Apache Kafka</title><path fill="#231F20" d="M15.362 7.756a3.06 3.06 0 0 0-1.57.433l-1.19-.69a3.082 3.082 0 0 0 .092-.744A3.066 3.066 0 0 0 9.627 3.69a3.066 3.066 0 0 0-3.066 3.065 3.066 3.066 0 0 0 3.066 3.066c.58 0 1.12-.163 1.583-.443l1.168.678a3.06 3.06 0 0 0-.108.813 3.06 3.06 0 0 0 .108.814l-1.168.677c-.462-.28-1.003-.443-1.583-.443a3.066 3.066 0 0 0-3.066 3.066A3.066 3.066 0 0 0 9.627 18a3.066 3.066 0 0 0 3.066-3.066 3.06 3.06 0 0 0-.092-.743l1.19-.69a3.06 3.06 0 0 0 1.57.432 3.066 3.066 0 0 0 3.067-3.066 3.066 3.066 0 0 0-3.066-3.066zM9.627 8.754a1.999 1.999 0 1 1 0-3.998 1.999 1.999 0 0 1 0 3.998zm0 8.18a1.999 1.999 0 1 1 0-3.999 1.999 1.999 0 0 1 0 3.998zm5.735-4.089a1.999 1.999 0 1 1 0-3.998 1.999 1.999 0 0 1 0 3.998zM6.556 18.823l-.887.514v1.028l.887.514.887-.514v-1.028zm-4.6-2.656-.888.514v1.028l.887.514.887-.514v-1.028zm4.6-8.334-.887.514v1.028l.887.514.887-.514V8.347zm-4.6-2.656-.888.514v1.028l.887.514.887-.514V5.691zm0 5.312-.888.514v1.028l.887.514.887-.514v-1.028zm21.089 0-.887.514v1.028l.887.514.887-.514v-1.028zm-4.6 5.312-.887.514v1.028l.887.514.887-.514v-1.028zm0-10.625-.887.514v1.028l.887.514.887-.514V6.204zm4.6 2.656-.887.514v1.028l.887.514.887-.514V9.374zm-16.49 7.969-.887.514v1.028l.887.514.887-.514v-1.028zm0-10.625-.887.514v1.028l.887.514.887-.514V7.232zm12.778 10.625-.887.514v1.028l.887.514.887-.514v-1.028zm0-10.625-.887.514v1.028l.887.514.887-.514V7.232z"/></svg>
