<svg role="img" viewBox="0 0 24 24" xmlns="http://www.w3.org/2000/svg"><title>MariaDB</title><path fill="#003545" d="M23.157 4.412c-.376-.078-.894.198-1.284.38-.5.232-1.264.756-1.708.9-.562.182-.812.142-1.376-.074-.348-.134-.742-.248-1.12-.384-.774-.278-1.088-.208-1.778.106-.572.26-.982.62-1.418 1.07-.196.2-.432.47-.638.696-.252.274-.35.342-.69.384a9.6 9.6 0 0 0-.618.088c-.578.108-1.088.312-1.574.62a3.455 3.455 0 0 0-.684.58c-.306.342-.42.552-.72.926-.188.234-.394.478-.608.692a7.373 7.373 0 0 1-.886.728c-.464.328-.92.632-1.41.918-.376.22-.93.466-1.324.636l-.126.052c-.262.108-.448.17-.544.182-.004 0-.012 0-.038-.002-.1-.008-.238-.05-.398-.132-.286-.148-.498-.384-.698-.556a3.817 3.817 0 0 0-.376-.294c-.346-.238-.786-.34-1.198-.444-.33-.086-.692-.136-1.032-.17a8.19 8.19 0 0 0-1.334-.014c-.354.022-.75.09-1.1.134-.326.042-.614.06-.83.108-.062.014-.15.032-.2.064-.076.046-.154.216-.186.3-.132.354-.174.77-.09 1.14.108.474.34.886.68 1.24.336.35.798.602 1.276.722.152.038.56.108.696-.002.068-.054.096-.128.13-.2l.05-.12c.078-.244-.028-.48-.036-.7-.004-.096-.048-.32.046-.39.16-.118.6-.026.774-.018.336.014.67.078.986.19.63.224 1.2.614 1.7 1.068.274.25.52.53.754.818.202.248.366.504.508.806.18.378.33.85.45 1.262.244.82.442 1.632.808 2.406.246.526.618 1.058 1.014 1.49.512.558 1.126.956 1.828 1.234.67.266 1.378.482 2.092.584.4.058.878.11 1.282.078.374-.03.686-.11 1.032-.23.586-.206 1.066-.476 1.582-.802.528-.334 1.04-.672 1.452-1.124.392-.432.612-.856.824-1.396.134-.342.264-.664.332-1.03.07-.37.074-.77.148-1.154.078-.408.2-.848.302-1.256.26-1.032.558-2.04.864-3.058.258-.854.694-1.702 1.048-2.526.162-.378.382-.772.502-1.166.148-.484.186-1.066.288-1.532.004-.01.006-.062.002-.068-.026-.034-.058-.006-.126-.02z"/></svg>
