<svg xmlns="http://www.w3.org/2000/svg" viewBox="0 0 24 24"><title>Microsoft SQL Server</title><path fill="#CC2927" d="M4.22 2C2.995 2 2 2.995 2 4.22v15.56C2 21.005 2.995 22 4.22 22h15.56c1.225 0 2.22-.995 2.22-2.22V4.22C22 2.995 21.005 2 19.78 2H4.22zm7.382 3.2h1.396v2.6c.69-.52 1.48-.78 2.37-.78 1.02 0 1.85.35 2.49 1.05.64.7.96 1.62.96 2.76 0 1.18-.34 2.14-1.02 2.86-.68.72-1.53 1.08-2.55 1.08-.46 0-.89-.08-1.29-.25-.4-.17-.73-.4-.99-.7v.78H11.6V5.2zm2.298 3.5c-.67 0-1.2.25-1.59.74-.39.49-.59 1.14-.59 1.95 0 .81.2 1.46.59 1.95.39.49.92.74 1.59.74.63 0 1.13-.24 1.51-.72.38-.48.57-1.14.57-1.97 0-.83-.19-1.49-.57-1.97-.38-.48-.88-.72-1.51-.72zM5.5 14.4h13v1.2h-13v-1.2zm0 2.4h9v1.2h-9v-1.2z"/></svg>
