<svg role="img" viewBox="0 0 24 24" xmlns="http://www.w3.org/2000/svg"><title>MySQL</title><path fill="#4479A1" d="M16.405 5.501c-.115 0-.193.014-.274.033v.013h.014c.054.104.146.18.214.273.054.107.1.214.154.32l.014-.015c.094-.066.14-.172.14-.333-.04-.047-.046-.094-.08-.14-.04-.067-.126-.1-.18-.153zM5.77 18.695h-.927a50.854 50.854 0 00-.27-4.41h-.008l-1.41 4.41H2.45l-1.4-4.41h-.01a72.892 72.892 0 00-.195 4.41H0c.055-1.966.192-3.81.41-5.53h1.15l1.335 4.064h.008l1.347-4.064h1.095c.242 2.015.384 3.86.428 5.53zm4.017-4.08c-.378 2.045-.876 3.533-1.492 4.46-.482.716-1.01 1.073-1.583 1.073-.153 0-.34-.046-.566-.138v-.494c.11.017.24.026.386.026.268 0 .483-.075.647-.222.197-.18.295-.382.295-.605 0-.155-.077-.47-.23-.944L6.23 14.615h.91l.727 2.36c.164.536.233.91.205 1.123.4-1.064.678-2.227.835-3.483zm12.325 4.08h-2.63v-5.53h.885v4.85h1.745zm-3.32.135l-1.016-.5c.09-.076.177-.158.255-.25.433-.506.648-1.258.648-2.253 0-1.83-.718-2.746-2.155-2.746-.704 0-1.254.232-1.65.698-.43.508-.646 1.256-.646 2.245 0 .972.19 1.686.574 2.14.35.41.877.615 1.583.615.264 0 .506-.033.725-.098l1.325.772.36-.623zM15.5 17.588c-.225-.36-.337-.94-.337-1.736 0-1.393.424-2.09 1.27-2.09.443 0 .77.167.977.5.224.362.336.936.336 1.723 0 1.404-.424 2.108-1.27 2.108-.445 0-.77-.167-.978-.5zm-1.658-.425c0 .47-.172.856-.516 1.157-.344.3-.803.45-1.384.45-.543 0-1.064-.172-1.573-.515l.237-.476c.438.22.833.328 1.19.328.332 0 .593-.073.783-.22a.754.754 0 00.3-.615c0-.33-.23-.61-.692-.835-.346-.164-.58-.27-.702-.32-.453-.2-.737-.353-.852-.46a1.013 1.013 0 01-.34-.79c0-.393.163-.728.49-.993.324-.266.74-.4 1.25-.4.46 0 .9.13 1.32.39l-.213.476a2.726 2.726 0 00-1.1-.27c-.295 0-.53.07-.702.21a.671.671 0 00-.276.553c0 .287.18.52.54.7l.07.04c.27.133.525.264.764.394.438.227.695.4.767.52.114.18.172.39.172.626zm8.33-5.2c-.227-.303-.468-.46-.725-.46-.055 0-.115.01-.177.024a.932.932 0 00-.14.053l-.016.007c.447.477.732 1.18.855 2.107l.017.07c-.01-.5-.022-.923-.065-1.27a3.36 3.36 0 00-.235-.862 1.87 1.87 0 00-.486-.727l-.028.058zm-.07 2.33c0 .015-.03.03-.075.03-.04 0-.085-.015-.085-.03v-.018c.032-.735-.09-1.265-.367-1.593-.12-.15-.257-.25-.41-.305a.767.767 0 00-.257-.03c-.342 0-.604.22-.79.654a2.487 2.487 0 00-.19.975c0 .063.003.128.01.193.004.055.008.11.008.17.11.45.31.7.6.75a.575.575 0 00.118.012c.123 0 .236-.028.34-.083.178-.092.34-.244.483-.453.186-.27.313-.637.38-1.102.024-.168.037-.338.037-.51 0-.097-.004-.193-.01-.29l-.008-.127c-.018-.163-.044-.318-.08-.47a.865.865 0 01.043.31c.045.26.084.577.085.979v.068zm-6.47 1.968c-.25.317-.55.476-.9.476a.9.9 0 01-.332-.063c-.14-.044-.264-.11-.377-.198a1.73 1.73 0 01-.387-.408c-.06-.1-.12-.215-.173-.35a5.8 5.8 0 01-.18-.664c-.025-.125-.06-.268-.1-.43a9.93 9.93 0 01-.127-.632l-.055-.346c0-.01-.003-.02-.003-.024l-.003-.04v-.077c0-.034.003-.068.01-.103.014-.12.042-.23.082-.33.04-.1.092-.193.155-.28a.955.955 0 01.41-.34c.1-.043.208-.07.318-.08h.03c.106 0 .21.013.308.04.146.04.28.104.405.19.193.143.37.35.53.62.11.2.2.416.263.65.032.12.054.22.066.3.01.073.028.15.054.237.01.04.016.073.016.1v.063c0 .225-.04.43-.12.617a2.176 2.176 0 01-.324.535 1.946 1.946 0 01-.47.408l-.06.04c.01 0 .015-.01.024-.015a2.08 2.08 0 01.172-.132c.09-.078.144-.12.163-.13a2.427 2.427 0 00.324-.385c.15-.217.268-.46.348-.73.047-.164.073-.335.073-.517 0-.053-.003-.11-.01-.162a1.783 1.783 0 00-.066-.333 2.563 2.563 0 00-.198-.533 3.166 3.166 0 00-.455-.707 3.384 3.384 0 00-.61-.545 2.502 2.502 0 00-.687-.35.952.952 0 00-.33-.058c-.135 0-.26.024-.374.073a.94.94 0 00-.384.274 1.247 1.247 0 00-.243.466 2.163 2.163 0 00-.076.48l.003.058c.005.113.018.22.04.323.012.063.03.133.06.213l.05.162.02.063c.04.134.088.293.146.476l.055.178c.036.12.074.248.114.39l.096.35c.1.342.2.627.31.855.095.198.2.37.32.52z"/></svg>
