<svg role="img" viewBox="0 0 24 24" xmlns="http://www.w3.org/2000/svg"><title>Apache NiFi</title><path fill="#728E9B" d="M7.78 0a1.487 1.487 0 0 0-.769.224L1.327 3.638A1.41 1.41 0 0 0 .6 4.824v7.045a1.41 1.41 0 0 0 .727 1.232l5.684 3.226a1.487 1.487 0 0 0 1.491 0l5.684-3.226a1.41 1.41 0 0 0 .727-1.232V4.824a1.41 1.41 0 0 0-.727-1.186L8.502.224A1.487 1.487 0 0 0 7.78 0zm8.44 7.673a1.487 1.487 0 0 0-.769.224l-5.684 3.414a1.41 1.41 0 0 0-.727 1.186v7.045a1.41 1.41 0 0 0 .727 1.232l5.684 3.226a1.487 1.487 0 0 0 1.491 0l5.684-3.226A1.41 1.41 0 0 0 23.4 19.542v-7.045a1.41 1.41 0 0 0-.727-1.186l-5.684-3.414a1.487 1.487 0 0 0-.769-.224z"/></svg>
