<svg role="img" viewBox="0 0 24 24" xmlns="http://www.w3.org/2000/svg"><title>PostgreSQL</title><path fill="#4169E1" d="M23.5594 14.7228a.5269.5269 0 0 0-.0563-.1191c-.139-.2632-.4768-.3418-1.0074-.2321-1.6533.3411-2.2935.1312-2.5256-.0191 1.342-2.0482 2.445-4.522 3.0412-6.8297.2089-.8084.3418-1.6245.2984-2.2336-.0466-.6546-.2659-1.1306-.6528-1.4155-.1154-.0849-.5765-.3997-1.4824-.3997-.7573 0-1.6904.2159-2.7766.834-.0975-.1394-.207-.2702-.3249-.3879-.5765-.5765-1.2839-.9564-2.0798-1.1217-.8014-.1667-1.6141-.0849-2.3964.2384-.6276.2593-1.2127.6781-1.7305 1.2344-.4257-.1037-.8673-.1556-1.3088-.1556-1.8004 0-3.474.864-4.5569 2.3522-.2782.3826-.5019.7976-.6651 1.2339l-.1039.0077C2.5438 6.684 1.5767 7.8914 1.4617 9.4886c-.0297.4128.0221.8397.0936 1.2365.0397.2193.1004.4602.1776.7057.0597.1904.1375.4058.2286.627-.0261.072-.0497.1452-.0694.2189-.1831.6851-.1159 1.329.1939 1.8625.3045.5248.8098.8678 1.4534 1.003l.0608.0118a5.41 5.41 0 0 0-.0177.1498c-.0918.9406.1529 1.7929.6943 2.3913.3468.3833.7927.6402 1.2889.7467.1736.0372.3535.0559.5363.0559.181 0 .367-.0187.5552-.0561.6007-.119 1.1794-.4395 1.6758-.929.3955-.3899.7199-.8788.9686-1.4499l.0367-.0845c.0225-.0003.0452 0 .0677-.0003h.0146c.1393-.0003.3148-.0046.5765-.0046.1306 0 .2684.0019.422.0056.7366.0166 1.326-.2753 1.7043-.846a.5765.5765 0 0 0 .087-.463c-.0478-.1822-.1708-.321-.3403-.3827-.1023-.0372-.2095-.0506-.3132-.0346.0048-.0017.011-.0035.0157-.0049-.0035.0009-.0074.0017-.0109.0026l.0033-.0013c.0594-.0242.1148-.0415.1644-.0541l.4568-.1078c1.2274-.2902 2.4933-.59 3.5876-1.0899.1999-.0914.3847-.1794.5495-.2633.0127-.0065.0242-.0133.0364-.0202.25-.14.4765-.2912.6668-.4567.0559-.0486.1091-.0994.1581-.1526a.5006.5006 0 0 0 .0946-.1298c.5076-.7698.6748-1.4837.5128-2.1716z"/></svg>
