<svg role="img" viewBox="0 0 24 24" xmlns="http://www.w3.org/2000/svg">
  <title>Redis</title>
  <path fill="#DC382D" d="M21.55 12.73c-.48.25-2.96 1.27-3.49 1.55-.53.27-.82.27-1.24.04-.42-.23-3.01-1.24-3.49-1.48-.48-.23-.44-.52.04-.75.93-.46 1.78-.83 2.1-.97.31-.14.55-.07.84.08l1.74.96c.32.17.58.17.87 0l2.1-1.22c.42-.25.39-.49-.04-.73L12.58 6.1c-.46-.25-.92-.23-1.34 0L3.32 10.2c-.38.22-.42.47 0 .72l8 4.16c.42.22.87.22 1.29 0l8.94-4.62z"/>
  <path fill="#DC382D" d="M21.55 15.4c-.48.25-2.96 1.27-3.49 1.55-.53.27-.82.27-1.24.04-.42-.23-3.01-1.24-3.49-1.48-.48-.23-.82-.23-1.24 0-.42.23-3.07 1.25-3.49 1.48-.42.23-.71.23-1.24-.04-.53-.28-3.01-1.3-3.49-1.55-.48-.25-.52-.43 0-.7l4.6-2.37 4.6 2.37c.42.22.87.22 1.29 0l4.6-2.37 4.6 2.37c.44.27.44.45-.01.7z"/>
</svg>
