<svg role="img" viewBox="0 0 24 24" xmlns="http://www.w3.org/2000/svg">
  <title>RStudio</title>
  <path fill="#75AADB" d="M12 0C5.373 0 0 5.373 0 12s5.373 12 12 12 12-5.373 12-12S18.627 0 12 0zm-.963 17.244c-.426.244-.963.244-1.389 0L5.07 14.57a1.39 1.39 0 0 1-.694-1.204V7.634c0-.497.264-.956.694-1.204l4.578-2.674a1.39 1.39 0 0 1 1.389 0l4.578 2.674c.43.248.694.707.694 1.204v5.732c0 .497-.264.956-.694 1.204l-4.578 2.674z"/>
  <path fill="#FFFFFF" d="M11.037 6.5v4.25h1.5c1.243 0 2.25-1.007 2.25-2.25S13.78 6.25 12.537 6.25h-1.5v.25zm0 5.75v3.5h-1.5v-9h3c1.795 0 3.25 1.455 3.25 3.25s-1.455 3.25-3.25 3.25h-1.5z"/>
</svg>
