<svg role="img" viewBox="0 0 24 24" xmlns="http://www.w3.org/2000/svg"><title>Apache Spark</title><path fill="#E25A1C" d="M10.812 0c-.425.013-.845.215-1.196.605a3.593 3.593 0 00-.493.722 6.628 6.628 0 00-.678 2.372c-.06.503-.061 1.01-.013 1.51.1.98.334 1.93.715 2.836.28.658.6 1.298.98 1.9.096.155.135.284.09.47-.386 1.603-.96 3.124-1.785 4.553-.215.37-.442.735-.71 1.067-.074.09-.18.154-.283.2-.37.147-.746.27-1.12.403-.675.244-1.36.462-2.012.754A5.95 5.95 0 002.4 18.56c-.474.465-.766.897-.803 1.524a1.5 1.5 0 00.082.574c.14.42.477.727.884.858a2.2 2.2 0 001.55-.1c.604-.27 1.09-.726 1.544-1.198.46-.478.842-1.022 1.203-1.58.354-.545.666-1.112.945-1.697a.467.467 0 01.292-.258c1.68-.584 3.39-.998 5.142-1.222.12-.015.238-.045.394-.076-.084.108-.14.187-.203.26-.4.461-.807.917-1.2 1.384a5.838 5.838 0 00-.94 1.573c-.201.52-.332 1.058-.155 1.614.142.448.467.765.9.938a1.97 1.97 0 001.534.012 2.799 2.799 0 001.168-.856c.509-.578.863-1.25 1.139-1.963.271-.695.465-1.414.614-2.146a.46.46 0 01.176-.282c.618-.493 1.27-.94 1.957-1.332.684-.39 1.396-.722 2.143-.976.305-.104.622-.172.94-.236.098-.02.213-.004.31.03.256.09.36.303.325.586a1.867 1.867 0 01-.155.53c-.06.13-.137.253-.217.374-.238.358-.517.685-.798 1.01a26.336 26.336 0 01-1.203 1.28c-.156.155-.141.272-.015.432.124.158.316.2.505.114.155-.072.31-.152.451-.247a6.21 6.21 0 001.88-2.062c.253-.438.473-.893.585-1.396a2.07 2.07 0 00-.049-1.1 1.553 1.553 0 00-.849-.963c-.486-.227-.997-.25-1.517-.17-.7.107-1.36.35-2.006.636a12.93 12.93 0 00-2.078 1.184.342.342 0 01-.343.06c-.399-.128-.8-.247-1.2-.375-.368-.117-.735-.237-1.1-.363a.39.39 0 01-.176-.128.387.387 0 01.08-.21 19.34 19.34 0 001.62-2.826 9.431 9.431 0 00.718-2.47c.075-.56.087-1.12-.01-1.677a3.257 3.257 0 00-.597-1.38C13.5.628 12.752.138 11.8.014 11.469-.03 11.142-.011 10.812 0zm.592 1.67a.599.599 0 01.527.203c.238.277.378.606.432.967.064.445.027.886-.057 1.323a8.003 8.003 0 01-.798 2.167c-.15.283-.3.57-.482.83-.049.072-.173.11-.262.113-.05.003-.128-.09-.163-.157-.07-.14-.125-.289-.176-.437a10.4 10.4 0 01-.535-2.478 5.403 5.403 0 01.003-1.122 2.438 2.438 0 01.36-1.047c.091-.148.228-.269.39-.312a.898.898 0 01.265-.047.665.665 0 01.296-.003zm-2.904 9.473l.09.014c.466.107.92.245 1.37.397.215.072.422.17.634.254.037.014.074.04.07.045a.17.17 0 01-.05.051c-.36.138-.72.278-1.083.41-.667.24-1.342.46-2.017.676-.093.03-.198.018-.318.027.434-.64.805-1.265 1.11-1.924.041-.001.115.03.194.05zm-3.345 4.035a.23.23 0 01.084.051c.016.016.016.055.014.083a14.098 14.098 0 01-.883 2.116c-.274.524-.59 1.024-.96 1.483-.18.226-.378.44-.595.636-.09.084-.227.143-.354.163a.278.278 0 01-.174-.033.238.238 0 01-.107-.16c-.025-.122-.03-.253-.013-.376.046-.326.189-.618.36-.896.405-.656.922-1.218 1.476-1.746.36-.346.735-.677 1.102-1.017.014-.013.036-.018.05-.021v-.283z"/></svg>
