<svg role="img" viewBox="0 0 24 24" xmlns="http://www.w3.org/2000/svg"><title>Trino</title><path fill="#DD00A1" d="M12 0C5.373 0 0 5.373 0 12s5.373 12 12 12 12-5.373 12-12S18.627 0 12 0Zm1.326 4.566s.86-.108 1.438.23c.58.336.98.911 1.067 1.529.106.733-.133 1.381-.502 1.94.535.153 1.06.472 1.406.952.533.742.465 1.684.022 2.406a3.2 3.2 0 0 1-1.142 1.084c.426.389.768.911.843 1.558.094.836-.304 1.6-.862 2.098a3.48 3.48 0 0 1-1.453.766c.232.492.361 1.055.253 1.683-.148.862-.715 1.479-1.365 1.836-.624.342-1.377.488-2.033.35-.643-.133-1.206-.489-1.591-1.025-.2.544-.558 1.047-1.112 1.38-.759.458-1.632.389-2.319.014a3.288 3.288 0 0 1-1.124-1.083 2.35 2.35 0 0 1-1.536.58c-.883-.015-1.566-.527-1.975-1.128a3.392 3.392 0 0 1-.494-1.567c-.54.064-1.126-.03-1.669-.374-.744-.473-1.08-1.258-1.1-2.02a3.427 3.427 0 0 1 .275-1.501c-.546-.133-1.065-.435-1.437-.951-.511-.709-.485-1.574-.165-2.28a3.337 3.337 0 0 1 .938-1.2c-.39-.33-.725-.79-.862-1.386-.187-.818.068-1.582.481-2.14.397-.536.988-.955 1.585-1.124a2.369 2.369 0 0 1-.032-1.64c.27-.84.911-1.395 1.583-1.687a3.386 3.386 0 0 1 1.545-.264c.068-.544.303-1.09.765-1.516.634-.583 1.462-.691 2.187-.504a3.28 3.28 0 0 1 1.333.71c.22-.5.594-.96 1.153-1.27a2.296 2.296 0 0 1 2.142-.078c.595.273 1.035.712 1.305 1.226.41-.36.92-.637 1.529-.712Zm-.768 1.018c-.77.052-1.244.5-1.56.933a5.597 5.597 0 0 1 1.336 1.43c.606-.147 1.2-.37 1.681-.753.341-.27.433-.702.33-1.081-.098-.364-.432-.695-.9-.693-.299 0-.59.04-.887.164Zm-4.282-.93c-.577-.06-1.04.194-1.387.537a5.472 5.472 0 0 1 1.744.928c.468-.377.908-.822 1.157-1.389.158-.36.019-.728-.21-.995-.22-.256-.601-.389-.986-.218-.193.084-.274.171-.318 1.136Zm-3.43.632c-.393-.25-.83-.293-1.222-.182a5.475 5.475 0 0 1 1.104 1.694c.575-.175 1.15-.418 1.594-.84.297-.282.25-.662.095-.972-.15-.3-.492-.52-.883-.404-.157.047-.406.158-.688.704Zm-2.876 1.598c-.262-.373-.624-.574-1-.622.146.659.399 1.283.69 1.855.535-.142 1.083-.342 1.524-.695.27-.217.373-.544.345-.845-.027-.289-.212-.58-.524-.631-.265-.044-.62.123-.863.54a3.97 3.97 0 0 0-.172.398Zm-2.11 2.158a1.127 1.127 0 0 0-.717-.242c-.033.669.042 1.34.18 1.98.5-.07 1.012-.195 1.465-.462.305-.18.316-.544.2-.847-.112-.292-.397-.503-.71-.437-.161.034-.257.066-.419.008Zm-1.032 2.748a1.158 1.158 0 0 0-.48.182c.192.645.477 1.259.81 1.82.417.023.847-.01 1.268-.177.35-.139.432-.492.383-.809-.048-.305-.265-.587-.582-.576a3.73 3.73 0 0 0-.515.062 1.12 1.12 0 0 0-.884-.502Zm-.073 3.137c-.063.19-.08.387-.045.588.38.55.837 1.047 1.33 1.47.33.078.671.102 1.012.011.368-.1.498-.435.506-.763.008-.316-.142-.64-.44-.695a3.71 3.71 0 0 0-.521-.035 1.139 1.139 0 0 0-.991-.36 1.15 1.15 0 0 0-.851.784Zm.915 3.025c.03.201.108.384.236.545.522.378 1.106.672 1.712.872.273.082.556.104.821.032.38-.063.555-.378.618-.699.06-.309-.016-.655-.293-.775a3.756 3.756 0 0 0-.49-.167 1.15 1.15 0 0 0-1.037-.2 1.157 1.157 0 0 0-.667.488 3.757 3.757 0 0 0-.9-.096Zm1.974 2.56c.126.161.289.282.483.355.597.157 1.229.2 1.847.14.2-.017.39-.07.556-.164.358-.139.455-.474.438-.793-.017-.307-.17-.623-.457-.674a3.636 3.636 0 0 0-.517-.04 1.157 1.157 0 0 0-1.549.327c-.18.038-.36.065-.547.068-.117.04-.211.07-.254.781Zm2.803 1.831c.168.114.362.184.57.197.613-.057 1.21-.227 1.756-.498.177-.1.328-.231.436-.394.272-.233.284-.585.195-.893-.086-.296-.303-.557-.582-.533a3.72 3.72 0 0 0-.499.076 1.154 1.154 0 0 0-1.476.653 3.77 3.77 0 0 0-.476.214c-.075.067-.137.12-.137.88l.213.298Zm3.04.877c.193.048.392.04.584-.023.554-.282 1.047-.662 1.458-1.113a1.57 1.57 0 0 0 .267-.482c.15-.294.073-.631-.068-.915-.137-.273-.382-.486-.648-.396-.133.045-.262.101-.386.166a1.16 1.16 0 0 0-1.266.911 3.8 3.8 0 0 0-.366.332c-.04.104-.068.195.035.905l.39.615Zm2.85-.153c.19-.034.365-.118.512-.255.42-.428.75-.939.972-1.5a1.541 1.541 0 0 0 .083-.539c.012-.33-.157-.622-.383-.843-.218-.213-.51-.34-.745-.192a3.58 3.58 0 0 0-.352.276c.006.04.01.082.01.123a1.155 1.155 0 0 0-.937 1.06 3.737 3.737 0 0 0-.217.416c-.005.112.002.206.185.875l.473.473a1.8 1.8 0 0 0 .398.106Zm2.285-1.36c.155-.11.28-.266.355-.464a3.46 3.46 0 0 0 .312-1.73 1.569 1.569 0 0 0-.114-.528c-.124-.306-.375-.531-.651-.661-.265-.125-.562-.141-.738.036-.11.11-.203.23-.287.357a1.151 1.151 0 0 0-.532 1.32 3.59 3.59 0 0 0-.053.466c.03.107.065.195.406.797l.585.373c.124.052.252.072.378.065a2.32 2.32 0 0 0 .339-.031Zm1.445-2.499c.092-.162.14-.347.135-.545a3.441 3.441 0 0 0-.4-1.72 1.566 1.566 0 0 0-.306-.442c-.25-.236-.546-.366-.825-.375-.269-.008-.522.1-.599.31a3.55 3.55 0 0 0-.14.444 1.16 1.16 0 0 0-.088 1.423 3.69 3.69 0 0 0 .121.448c.063.088.122.16.613.624l.635.16c.115.006.23-.012.34-.053.21-.082.392-.17.514-.274Zm.503-2.88c.021-.187-.006-.377-.085-.564a3.428 3.428 0 0 0-1.058-1.44 1.569 1.569 0 0 0-.459-.258c-.316-.126-.624-.127-.87-.012-.236.111-.414.342-.385.57.018.142.05.282.093.418a1.158 1.158 0 0 0 .37 1.373c.097.13.202.255.314.373.091.066.175.118.757.371l.594-.08a1.77 1.77 0 0 0 .295-.164c.177-.14.33-.299.434-.467v-.12Zm-.579-2.906c-.056-.178-.16-.34-.313-.477a3.419 3.419 0 0 0-1.562-.882 1.55 1.55 0 0 0-.53-.084c-.34-.009-.644.093-.862.273-.21.173-.334.43-.243.645.057.134.126.262.205.384a1.157 1.157 0 0 0 .793 1.154c.135.087.277.166.425.236.103.04.198.064.821.143l.497-.277c.082-.063.16-.133.233-.212.126-.192.229-.4.293-.572l.002-.101c-.006-.103.003-.195-.159-.225Zm-1.692-2.421c-.113-.133-.264-.234-.44-.292a3.373 3.373 0 0 0-1.764-.241 1.547 1.547 0 0 0-.511.112c-.32.125-.572.34-.717.608-.14.257-.182.56-.016.733.103.108.218.206.34.295a1.159 1.159 0 0 0 1.14.783c.152.04.31.07.47.09.106.01.201.006.84-.108l.367-.432a1.78 1.78 0 0 0 .143-.281c.059-.216.09-.447.076-.62l-.03-.076c-.027-.096-.044-.183-.286-.175l.388-.396Z"/></svg>
